<svg xmlns="http://www.w3.org/2000/svg" xmlns:xlink="http://www.w3.org/1999/xlink" width="1000" zoomAndPan="magnify" viewBox="0 0 750 749.999995" height="1000" preserveAspectRatio="xMidYMid meet" version="1.0"><defs><g/><clipPath id="8caca66bc3"><rect x="0" width="530" y="0" height="750"/></clipPath></defs><rect x="-75" width="900" fill="#ffffff" y="-74.999999" height="899.999994" fill-opacity="1"/><rect x="-75" width="900" fill="#ffffff" y="-74.999999" height="899.999994" fill-opacity="1"/><g transform="matrix(1, 0, 0, 1, 111, -0.000000000000042435)"><g clip-path="url(#8caca66bc3)"><g fill="#ffde59" fill-opacity="1"><g transform="translate(1.058025, 736.622096)"><g><path d="M 162.265625 0 L 26.53125 0 C 16.644531 0 11.703125 -4.941406 11.703125 -14.828125 L 11.703125 -715.40625 C 11.703125 -725.28125 16.644531 -730.21875 26.53125 -730.21875 L 241.84375 -730.21875 C 253.289062 -730.21875 258.753906 -724.238281 258.234375 -712.28125 L 181.78125 -17.9375 C 180.21875 -5.976562 173.710938 0 162.265625 0 Z M 279.296875 -546.109375 L 406.46875 -546.109375 C 438.707031 -546.109375 464.707031 -536.222656 484.46875 -516.453125 C 504.238281 -496.691406 514.125 -470.691406 514.125 -438.453125 L 514.125 -107.65625 C 514.125 -75.414062 504.238281 -49.410156 484.46875 -29.640625 C 464.707031 -9.878906 438.707031 0 406.46875 0 L 220.78125 0 C 208.820312 0 203.625 -5.976562 205.1875 -17.9375 L 259.796875 -528.171875 C 261.347656 -540.128906 267.847656 -546.109375 279.296875 -546.109375 Z M 279.296875 -546.109375 "/></g></g></g></g></g></svg>